<?xml version="1.0" encoding="utf-8"?>
<svg viewBox="0 0 128 128" xmlns="http://www.w3.org/2000/svg">
  <path d="M 19 114 L 9 1.661 L 12.8 1.661 L 115.2 1.661 L 119 1.661 L 109 113.661 L 64 126.285 L 19 114 Z" style="fill: rgb(17, 59, 75);" transform="matrix(0.9999999999999999, 0, 0, 1, 0, 0)"/>
  <path d="M64 116.8l36.378-10.086 8.559-95.878H64z" style="fill: rgb(26, 89, 112);" transform="matrix(0.9999999999999999, 0, 0, 1, 0, 0)"/>
  <path fill="#EBEBEB" d="M 64 62.585 L 46.001 77.8 L 41.55 24.599 L 29.489 24.599 L 35.979 99.226 L 64 76.278 L 64 62.585 Z" transform="matrix(0.9999999999999999, 0, 0, 1, 0, 0)"/>
  <path fill="#fff" d="M 86.307 24.599 L 82.4 77.8 L 64 62.494 L 64 76.034 L 92.122 99.226 L 98.621 24.599 L 86.307 24.599 Z" transform="matrix(0.9999999999999999, 0, 0, 1, 0, 0)"/>
</svg>